<svg width="200" height="200" viewBox="0 0 200 200" fill="none" xmlns="http://www.w3.org/2000/svg">
<path d="M120.687 5.4751L120.479 24.4557L132.389 45.1L132.597 26.1194L120.687 5.4751Z" fill="#FCFFFC"/>
<path d="M125.417 33.0879L119.178 39.2887L117.458 60.1409L132.412 45.1871L125.417 33.0879Z" fill="#FCFFFC"/>
<path fill-rule="evenodd" clip-rule="evenodd" d="M125.372 90.4343C138.037 79.0586 150.042 66.971 161.333 54.2302C158.232 48.8572 154.3 45.0762 149.328 43.2275C134.818 59.6598 119.074 74.9609 102.236 88.9975C99.4092 94.7455 97.357 97.4817 90.7245 97.7552C90.5922 101.558 90.1177 105.342 89.3066 109.061C89.3066 109.061 92.1393 114.03 99.9292 114.774C107.358 115.484 128.816 106.664 128.816 106.664C139.134 109.371 149.144 113.139 158.686 117.907C162.146 113.673 164.906 109.23 165.095 103.615C154.903 98.1607 144.137 93.8558 132.994 90.7796C130.238 89.996 127.705 89.9881 125.372 90.4343ZM99.0595 108.148C99.0595 108.394 98.9619 108.63 98.7882 108.803C98.6145 108.977 98.3789 109.075 98.1332 109.075C97.8875 109.075 97.6519 108.977 97.4782 108.803C97.3045 108.63 97.2068 108.394 97.2068 108.148C97.2068 107.903 97.3045 107.667 97.4782 107.494C97.6519 107.319 97.8875 107.222 98.1332 107.222C98.3789 107.222 98.6145 107.319 98.7882 107.494C98.9619 107.667 99.0595 107.903 99.0595 108.148ZM112.607 98.5757C112.782 98.402 112.879 98.1664 112.879 97.9207C112.879 97.675 112.782 97.4394 112.607 97.2657C112.434 97.092 112.199 96.9944 111.953 96.9944C111.707 96.9944 111.471 97.092 111.298 97.2657C111.124 97.4394 111.026 97.675 111.026 97.9207C111.026 98.1664 111.124 98.402 111.298 98.5757C111.471 98.7494 111.707 98.847 111.953 98.847C112.199 98.847 112.434 98.7494 112.607 98.5757ZM129.383 103.762C129.383 104.008 129.286 104.244 129.112 104.417C128.938 104.591 128.703 104.689 128.457 104.689C128.211 104.689 127.975 104.591 127.802 104.417C127.628 104.244 127.53 104.008 127.53 103.762C127.53 103.517 127.628 103.281 127.802 103.108C127.975 102.934 128.211 102.836 128.457 102.836C128.703 102.836 128.938 102.934 129.112 103.108C129.286 103.281 129.383 103.517 129.383 103.762ZM146.636 99.502C146.811 99.3283 146.908 99.0927 146.908 98.847C146.908 98.6014 146.811 98.3658 146.636 98.192C146.463 98.0183 146.228 97.9207 145.982 97.9207C145.736 97.9207 145.5 98.0183 145.327 98.192C145.153 98.3658 145.055 98.6014 145.055 98.847C145.055 99.0927 145.153 99.3283 145.327 99.502C145.5 99.6758 145.736 99.7734 145.982 99.7734C146.228 99.7734 146.463 99.6758 146.636 99.502ZM156.663 112.421C156.663 112.667 156.566 112.902 156.391 113.076C156.218 113.25 155.982 113.347 155.737 113.347C155.491 113.347 155.255 113.25 155.082 113.076C154.908 112.902 154.81 112.667 154.81 112.421C154.81 112.175 154.908 111.939 155.082 111.766C155.255 111.592 155.491 111.494 155.737 111.494C155.982 111.494 156.218 111.592 156.391 111.766C156.566 111.939 156.663 112.175 156.663 112.421ZM108.789 89.4257C108.963 89.252 109.06 89.0163 109.06 88.7707C109.06 88.525 108.963 88.2894 108.789 88.1157C108.616 87.9419 108.38 87.8443 108.134 87.8443C107.888 87.8443 107.652 87.9419 107.479 88.1157C107.305 88.2894 107.208 88.525 107.208 88.7707C107.208 89.0163 107.305 89.252 107.479 89.4257C107.652 89.5994 107.888 89.697 108.134 89.697C108.38 89.697 108.616 89.5994 108.789 89.4257ZM125.886 84.8384C125.886 85.0841 125.788 85.3197 125.614 85.4935C125.441 85.6672 125.205 85.7648 124.959 85.7648C124.714 85.7648 124.478 85.6672 124.305 85.4935C124.131 85.3197 124.033 85.0841 124.033 84.8384C124.033 84.5928 124.131 84.3572 124.305 84.1834C124.478 84.0097 124.714 83.9121 124.959 83.9121C125.205 83.9121 125.441 84.0097 125.614 84.1834C125.788 84.3572 125.886 84.5928 125.886 84.8384ZM129.112 70.2371C129.286 70.0634 129.383 69.8278 129.383 69.5821C129.383 69.3364 129.286 69.1008 129.112 68.9271C128.938 68.7534 128.703 68.6558 128.457 68.6558C128.211 68.6558 127.975 68.7534 127.802 68.9271C127.628 69.1008 127.53 69.3364 127.53 69.5821C127.53 69.8278 127.628 70.0634 127.802 70.2371C127.975 70.4108 128.211 70.5084 128.457 70.5084C128.703 70.5084 128.938 70.4108 129.112 70.2371ZM146.908 64.818C146.908 65.0637 146.811 65.2993 146.636 65.473C146.463 65.6468 146.228 65.7444 145.982 65.7444C145.736 65.7444 145.5 65.6468 145.327 65.473C145.153 65.2993 145.055 65.0637 145.055 64.818C145.055 64.5724 145.153 64.3368 145.327 64.163C145.5 63.9893 145.736 63.8917 145.982 63.8917C146.228 63.8917 146.463 63.9893 146.636 64.163C146.811 64.3368 146.908 64.5724 146.908 64.818ZM150.971 49.3133C151.145 49.1395 151.242 48.9039 151.242 48.6582C151.242 48.4126 151.145 48.177 150.971 48.0032C150.798 47.8295 150.562 47.7319 150.316 47.7319C150.07 47.7319 149.834 47.8295 149.661 48.0032C149.487 48.177 149.39 48.4126 149.39 48.6582C149.39 48.9039 149.487 49.1395 149.661 49.3133C149.834 49.487 150.07 49.5846 150.316 49.5846C150.562 49.5846 150.798 49.487 150.971 49.3133Z" fill="#FCFFFC"/>
<path d="M99.9241 72.5501C99.754 72.8715 99.0216 74.176 98.2843 75.5352C96.3749 73.6655 97.2207 72.2855 99.9241 72.5501Z" fill="#60CC63"/>
<path d="M106.187 75.3481L105.074 78.5431C106.069 78.5998 107.332 78.3859 107.386 77.4078C107.335 77.0013 107.203 76.6094 106.997 76.2554C106.791 75.9015 106.515 75.5928 106.187 75.3481Z" fill="#60CC63"/>
<path d="M94.3901 59.7515C94.6737 61.1126 94.9384 62.2847 95.0866 62.9275C95.9185 62.4927 96.4438 61.9633 96.4289 61.3962C96.4179 60.6579 95.6568 60.0918 94.3901 59.7515Z" fill="#60CC63"/>
<path d="M87.9247 63.6273C84.8621 62.89 84.7675 61.0562 87.7356 59.9976C87.8823 61.2017 87.9454 62.4145 87.9247 63.6273Z" fill="#60CC63"/>
<path d="M184.529 115.956C184.453 115.275 181.334 113.895 177.704 112.515C174.301 111.211 168.271 108.336 164.754 106.579C164.044 109.715 162.678 112.666 160.747 115.236C163.507 116.559 166.153 118.128 167.76 118.26C168.823 118.323 169.889 118.182 170.899 117.844C175.171 116.485 184.774 118.395 184.529 115.956Z" fill="#60CC63"/>
<path d="M166.964 26.857C166.283 26.7814 164.277 29.5604 162.162 32.8121C160.309 35.6667 155.904 41.3382 152.936 45.0247C155.485 46.6815 157.693 48.8121 159.439 51.3011C161.557 48.352 165.13 45.6485 165.697 43.7391C165.976 42.7113 166.058 41.6405 165.943 40.582C165.53 36.1214 169.405 27.1216 166.964 26.857Z" fill="#60CC63"/>
<path d="M73.878 71.5106C74.4134 71.1563 74.8148 70.6329 75.018 70.0238C75.2211 69.4148 75.2145 68.7552 74.999 68.1503C74.7837 67.5456 74.372 67.0303 73.8295 66.6867C73.2872 66.3432 72.6453 66.1913 72.0064 66.2551C72.3601 65.7344 72.532 65.1116 72.4956 64.4832C72.4592 63.8548 72.2163 63.256 71.8048 62.7798C71.3933 62.3035 70.8361 61.9764 70.2197 61.8491C69.6033 61.7219 68.9621 61.8016 68.3955 62.0761C69.3328 59.2702 65.4464 57.0493 63.4046 59.5239C63.3888 58.8299 63.1303 58.1634 62.6741 57.6402C62.2179 57.1171 61.5927 56.7702 60.9074 56.6602C60.2219 56.55 59.5196 56.6836 58.9224 57.0375C58.3253 57.3914 57.871 57.9434 57.6386 58.5975C56.5152 55.6414 52.0994 56.4454 52.0994 59.4672C51.6485 59.0251 51.0637 58.7449 50.4366 58.6704C49.8095 58.5957 49.1753 58.731 48.6332 59.0549C48.0912 59.3789 47.6716 59.8733 47.4402 60.461C47.2088 61.0486 47.1786 61.6964 47.3543 62.3029C46.7697 62.0411 46.1143 61.9829 45.4926 62.1374C44.871 62.292 44.3191 62.6504 43.9252 63.1553C43.5312 63.6604 43.3178 64.2829 43.3191 64.9233C43.3204 65.5639 43.5364 66.1855 43.9325 66.6889C43.2597 66.6112 42.5813 66.7743 42.0174 67.1495C41.4536 67.5246 41.041 68.0874 40.8528 68.738C40.6647 69.3886 40.7132 70.0847 40.9897 70.7029C41.2663 71.3211 41.753 71.8213 42.3633 72.1146C41.6939 72.2064 41.0785 72.5325 40.6267 73.0351C40.1748 73.5376 39.9157 74.184 39.8953 74.8595C39.8749 75.5349 40.0945 76.1958 40.5152 76.7247C40.9359 77.2536 41.5305 77.6163 42.1932 77.7483C39.6321 79.4318 41.3037 83.4278 44.0837 82.9661C43.734 83.4912 43.5667 84.1169 43.6078 84.7465C43.6488 85.3762 43.8958 85.9748 44.3109 86.4501C44.7259 86.9254 45.2857 87.251 45.9041 87.3765C46.5223 87.5022 47.1649 87.4208 47.7324 87.1451C46.7871 89.9759 50.782 92.146 52.7233 89.6594C52.7268 90.3378 52.9711 90.9929 53.4128 91.508C53.8545 92.0229 54.4647 92.3642 55.1347 92.4709C55.8046 92.5777 56.4908 92.4429 57.0705 92.0907C57.6504 91.7385 58.0862 91.1917 58.3003 90.548C58.4574 90.9845 58.7189 91.3758 59.0618 91.6881C59.4048 92.0005 59.8189 92.2242 60.2682 92.3397C60.7174 92.4553 61.1881 92.4592 61.6392 92.3512C62.0903 92.2433 62.5082 92.0266 62.8564 91.7201C61.9389 88.9378 61.1877 86.1033 60.6067 83.2317C58.8614 75.622 59.2863 78.404 58.4515 75.0648C56.0695 74.5544 56.8068 71.7375 58.4704 72.626C59.2664 73.0609 59.548 73.0041 59.548 72.4937C59.775 68.2968 62.9132 66.9924 65.2385 71.1325C67.0534 74.3653 68.2632 80.2259 64.9548 81.0577C64.6104 81.154 64.2536 81.1987 63.8961 81.19C63.8961 82.0646 65.8324 84.8078 66.2026 85.2695C67.3388 85.0829 68.5002 85.1151 69.6244 85.364L72.4412 84.5133C72.5344 84.1805 72.5469 83.8302 72.4776 83.4915C72.4085 83.1529 72.2595 82.8357 72.0432 82.5661C72.7142 82.647 73.3921 82.4874 73.9566 82.1158C74.5211 81.7441 74.9356 81.1844 75.1265 80.5361C75.3174 79.8879 75.2723 79.1928 74.9992 78.5745C74.7263 77.9564 74.2429 77.4549 73.6352 77.1593C74.3042 77.0707 74.9206 76.7492 75.3762 76.2513C75.8318 75.7534 76.0973 75.1111 76.1263 74.4368C76.1552 73.7626 75.9458 73.0998 75.5347 72.5647C75.1235 72.0295 74.537 71.6563 73.878 71.5106Z" fill="#60CC63"/>
<path d="M63.9718 81.2086C63.1267 81.1449 62.2971 80.9471 61.5142 80.6226L64.7658 83.0424C64.3816 82.4902 64.1116 81.8667 63.9718 81.2086Z" fill="#60CC63"/>
<path d="M90.7226 97.7886C87.0256 98.0938 83.3138 98.1823 79.6064 98.0532L90.6281 100.492C90.7068 99.5931 90.7383 98.6907 90.7226 97.7886Z" fill="#60CC63"/>
<path d="M55.7295 32.7931C55.7287 34.023 55.3632 35.2251 54.6794 36.2475C53.9954 37.2698 53.0238 38.0664 51.8872 38.5365C50.7506 39.0066 49.5002 39.1292 48.2939 38.8888C47.0876 38.6483 45.9798 38.0557 45.1104 37.1857C44.2409 36.3157 43.6489 35.2074 43.4092 34.001C43.1696 32.7947 43.293 31.5442 43.7638 30.4079C44.2348 29.2717 45.032 28.3005 46.0547 27.6173C47.0774 26.934 48.2797 26.5693 49.5098 26.5693C50.3272 26.5684 51.1367 26.7288 51.892 27.0413C52.6473 27.3538 53.3334 27.8123 53.9112 28.3904C54.489 28.9686 54.947 29.655 55.2591 30.4105C55.5711 31.166 55.731 31.9757 55.7295 32.7931Z" fill="#60CC63"/>
<path d="M95.3729 125.106C95.114 121.408 95.6158 117.695 96.8475 114.198" stroke="black" stroke-linecap="round" stroke-linejoin="round"/>
<path d="M97.1311 73.8355L96.4316 61.396" stroke="black" stroke-linecap="round" stroke-linejoin="round"/>
<path d="M86.7714 82.7589L85.5615 61.9634" stroke="black" stroke-linecap="round" stroke-linejoin="round"/>
<path d="M64.8036 83.1177L61.4385 80.5845" stroke="black" stroke-linecap="round" stroke-linejoin="round"/>
<path d="M61.4386 80.5846C68.9249 83.4771 67.5807 75.2166 65.2952 71.151C62.9679 67.0118 59.8316 68.3153 59.6048 72.5122C59.6048 73.0226 59.3232 73.0753 58.5272 72.6445C56.8685 71.749 56.1263 74.5728 58.5083 75.0833C58.8297 76.3877 59.0983 77.1051 59.4157 78.1459C59.761 79.2792 60.4107 82.098 60.6635 83.2502C61.8475 88.6819 62.9679 93.1574 65.2405 96.6539C71.4552 106.224 79.3814 109.434 89.3065 109.091C90.1175 105.373 90.5921 101.589 90.7244 97.7862C97.7571 97.2001 99.4983 95.6807 105.319 82.303C105.903 80.9597 106.513 79.5239 107.191 77.9359" stroke="black" stroke-linecap="round" stroke-linejoin="round"/>
<path d="M66.2781 85.2919C65.2601 84.0888 64.4776 82.7049 63.9717 81.2124" stroke="black" stroke-linecap="round" stroke-linejoin="round"/>
<path d="M97.1311 73.8315C95.7321 77.2344 92.5302 84.295 89.777 86.1765C86.3094 88.5466 70.7586 85.5715 70.7586 85.5715C68.2253 85.0422 65.9756 84.7586 63.9717 86.3088" stroke="black" stroke-linecap="round" stroke-linejoin="round"/>
<path d="M69.6812 85.3676L86.62 80.2065" stroke="black" stroke-linecap="round" stroke-linejoin="round"/>
<path d="M103.672 62.3035C105.015 61.0936 107.851 57.7514 109.457 55.9514C110.197 55.1216 110.552 57.3504 106.168 62.5114" stroke="black" stroke-linecap="round" stroke-linejoin="round"/>
<path d="M105.074 63.2847C106.606 62.2639 108.581 60.644 110.424 59.2202C111.289 58.5525 111.956 59.8251 107.439 64.0598" stroke="black" stroke-linecap="round" stroke-linejoin="round"/>
<path d="M106.187 75.3479C107.679 76.7409 107.438 77.522 107.189 77.9349C105.806 79.7796 98.5372 77.2046 97.37 74.2763C96.8974 73.0923 97.8835 72.349 99.9242 72.547" stroke="black" stroke-linecap="round" stroke-linejoin="round"/>
<path d="M105.074 78.5431L106.19 75.3482C107.173 72.3423 107.4 71.605 106.87 69.7334C106.454 68.2588 106.04 67.5623 106.965 67.0111C111.983 64.0201 112.108 62.646 111.124 62.9843C109.026 63.7067 107.721 63.9863 106.322 64.3455" stroke="black" stroke-linecap="round" stroke-linejoin="round"/>
<path d="M100.288 68.8637C99.7196 66.9457 98.8462 65.1315 97.7015 63.4907C97.021 62.5455 97.7015 61.6191 100.613 64.8141" stroke="black" stroke-linecap="round" stroke-linejoin="round"/>
<path d="M87.7354 60.0011C84.7732 61.0448 84.8349 62.9115 87.9244 63.6308C90.3256 64.1692 92.836 63.9252 95.0884 62.9343C97.2078 61.8269 96.6804 60.4031 94.3919 59.7583" stroke="black" stroke-linecap="round" stroke-linejoin="round"/>
<path d="M90.8166 56.8778C90.533 56.1972 90.3062 55.63 90.0793 55.1196C88.8062 52.3987 87.2201 49.8355 85.3531 47.482C83.0785 44.9358 82.5979 45.683 84.0108 48.4839C86.3182 53.0609 88.1202 58.5265 87.9241 63.6269" stroke="black" stroke-linecap="round" stroke-linejoin="round"/>
<path d="M86.0149 48.2762C85.88 47.0152 85.931 45.7413 86.1662 44.4952C86.2607 44.1549 86.7493 43.8345 87.1871 45.9509C87.2806 46.4046 87.7174 48.3518 87.9054 49.0354C88.2275 50.4338 88.638 51.8102 89.1343 53.1567" stroke="black" stroke-linecap="round" stroke-linejoin="round"/>
<path d="M90.0796 55.1195C91.0059 56.4051 91.8139 53.0002 92.3293 51.6032C92.7979 50.3346 93.8218 49.1087 93.5959 52.8131C93.4387 55.422 94.4168 60.0667 95.0884 62.9273" stroke="black" stroke-linecap="round" stroke-linejoin="round"/>
<path d="M102.444 96.1436L124.544 90.6473C127.324 89.9504 130.238 89.996 132.994 90.7796C144.137 93.8558 154.903 98.1607 165.095 103.615C164.906 109.23 162.146 113.673 158.686 117.907C149.144 113.139 139.134 109.371 128.816 106.664C128.816 106.664 107.358 115.484 99.9292 114.774C92.1394 114.03 89.2827 109.046 89.2827 109.046" stroke="black" stroke-linecap="round" stroke-linejoin="round"/>
<path d="M125.372 90.4343C138.036 79.0586 150.042 66.971 161.332 54.2302C158.232 48.8572 154.3 45.0762 149.328 43.2275C134.818 59.6598 119.074 74.9609 102.235 88.9975" stroke="black" stroke-linecap="round" stroke-linejoin="round"/>
<path d="M184.529 115.956C184.453 115.275 181.334 113.895 177.704 112.515C174.301 111.211 168.271 108.336 164.754 106.579C164.044 109.715 162.678 112.666 160.747 115.236C163.507 116.559 166.153 118.128 167.76 118.26C168.823 118.323 169.889 118.182 170.899 117.844C175.171 116.485 184.774 118.395 184.529 115.956Z" stroke="black" stroke-linecap="round" stroke-linejoin="round"/>
<path d="M166.963 26.8565C166.282 26.7809 164.277 29.5599 162.161 32.8116C160.309 35.6662 155.904 41.3377 152.936 45.0242C155.485 46.681 157.693 48.8117 159.439 51.3007C161.556 48.3515 165.129 45.6481 165.696 43.7387C165.975 42.7108 166.058 41.64 165.942 40.5815C165.529 36.1209 169.405 27.1212 166.963 26.8565Z" stroke="black" stroke-linecap="round" stroke-linejoin="round"/>
<path d="M72.498 84.5169C72.5601 84.0238 72.528 83.5234 72.4035 83.0423C72.322 82.8741 72.2218 82.7155 72.105 82.5697C72.7772 82.6536 73.4574 82.4957 74.0239 82.1244C74.5905 81.7531 75.0066 81.1924 75.1981 80.5426C75.3894 79.8927 75.3434 79.196 75.0685 78.5769C74.7935 77.9578 74.3074 77.4566 73.697 77.1628C74.373 77.0781 74.9967 76.7551 75.456 76.2518C75.9152 75.7487 76.18 75.0981 76.2028 74.4171C76.2256 73.7363 76.0049 73.0695 75.5802 72.5367C75.1556 72.0039 74.5549 71.64 73.886 71.5102C74.3749 71.1905 74.7545 70.7289 74.9739 70.1875C75.1933 69.646 75.242 69.0505 75.1137 68.4806C74.9854 67.9106 74.686 67.3935 74.2558 66.9984C73.8254 66.6033 73.2848 66.349 72.706 66.2696C72.4753 66.2366 72.2416 66.2304 72.0095 66.2507C72.2611 65.8908 72.4232 65.476 72.4821 65.0408C72.5341 64.6683 72.5122 64.2893 72.4177 63.9255C72.3231 63.5616 72.1577 63.2199 71.9309 62.9199C71.7041 62.62 71.4203 62.3678 71.096 62.1777C70.7716 61.9876 70.4129 61.8633 70.0404 61.812C69.478 61.7322 68.9047 61.8245 68.3956 62.0767C68.4304 61.9591 68.4556 61.8389 68.4713 61.7175C68.5571 61.0972 68.4372 60.4658 68.1301 59.9202C67.8228 59.3745 67.3453 58.9446 66.7704 58.6962C66.1956 58.4479 65.5552 58.3948 64.9474 58.5451C64.3394 58.6954 63.7975 59.0408 63.4047 59.5285C63.4081 58.8362 63.1612 58.1662 62.7096 57.6416C62.258 57.1171 61.632 56.7734 60.9471 56.6738L60.758 56.636C60.09 56.5452 59.4113 56.6925 58.8409 57.052C58.2706 57.4115 57.845 57.9602 57.6387 58.6021C57.4158 58.0053 57.0004 57.4998 56.458 57.1655C55.9156 56.8313 55.2774 56.6873 54.644 56.7566C54.0107 56.8257 53.4186 57.104 52.9612 57.5475C52.5038 57.991 52.2072 58.5743 52.1184 59.2051C52.1027 59.2923 52.0964 59.3811 52.0995 59.4698C51.6647 59.0366 51.1005 58.7572 50.4926 58.6738C50.1204 58.6208 49.7414 58.6421 49.3774 58.7361C49.0134 58.8303 48.6716 58.9953 48.3717 59.222C48.0717 59.4487 47.8195 59.7323 47.6296 60.0568C47.4396 60.3812 47.3157 60.74 47.2648 61.1125C47.2101 61.513 47.244 61.9206 47.3643 62.3065C47.1188 62.1923 46.8576 62.1158 46.5892 62.0796C46.2168 62.0272 45.8377 62.0488 45.4736 62.143C45.1095 62.2372 44.7676 62.4024 44.4674 62.6289C44.1671 62.8553 43.9145 63.1388 43.7238 63.4631C43.5332 63.7873 43.4084 64.1459 43.3565 64.5184C43.305 64.9016 43.3303 65.2911 43.4309 65.6643C43.5315 66.0376 43.7054 66.3871 43.9425 66.6925C43.2685 66.6117 42.5878 66.7732 42.0219 67.148C41.4559 67.5228 41.0417 68.0867 40.853 68.7388C40.6645 69.3908 40.7138 70.0887 40.9923 70.7078C41.2708 71.3269 41.7604 71.8268 42.3734 72.1182C41.701 72.2061 41.0817 72.5305 40.6267 73.0334C40.1716 73.5363 39.9105 74.1847 39.89 74.8626C39.8695 75.5405 40.0911 76.2036 40.5149 76.7329C40.9388 77.2623 41.5373 77.6235 42.2033 77.7519C41.8645 77.9744 41.5776 78.2673 41.3623 78.6108C41.147 78.9541 41.0083 79.34 40.9555 79.7419C40.8537 80.491 41.0518 81.25 41.5067 81.8539C41.9615 82.4577 42.6363 82.8576 43.3843 82.9667C43.6151 83.0037 43.8502 83.0037 44.0808 82.9667C43.8431 83.332 43.6882 83.745 43.6271 84.1766C43.5555 84.6924 43.6256 85.2179 43.83 85.6969C44.0344 86.1758 44.3654 86.59 44.7874 86.895C45.2093 87.2002 45.7064 87.3846 46.2252 87.4286C46.7441 87.4725 47.2652 87.3744 47.7325 87.1447C47.6978 87.2558 47.6726 87.3697 47.6568 87.485C47.6026 87.8576 47.6228 88.2374 47.7162 88.6023C47.8098 88.967 47.9747 89.3097 48.2015 89.6104C48.4283 89.9111 48.7124 90.1637 49.0376 90.3538C49.3628 90.5439 49.7224 90.6676 50.0956 90.7177C50.5881 90.7899 51.091 90.7298 51.5527 90.5438C52.0144 90.3577 52.4184 90.0525 52.7234 89.659C52.7225 90.3399 52.9646 90.9988 53.4062 91.517C53.8477 92.0353 54.4599 92.379 55.1323 92.486C55.8047 92.5932 56.4932 92.4568 57.074 92.1014C57.6548 91.7461 58.0897 91.195 58.3004 90.5476C58.4575 90.984 58.7189 91.3754 59.0618 91.6878C59.4049 92 59.819 92.2237 60.2683 92.3393C60.7175 92.4548 61.1881 92.4588 61.6393 92.3508C62.0904 92.2429 62.5083 92.0262 62.8565 91.7197" stroke="black" stroke-linecap="round" stroke-linejoin="round"/>
<path d="M60.7959 83.8176L64.8038 83.1182" stroke="black" stroke-linecap="round" stroke-linejoin="round"/>
<path d="M169.481 169.816C168.049 169.329 166.737 168.542 165.632 167.509C164.528 166.475 163.655 165.219 163.072 163.823L160.671 158.114L169.897 154.409L170.766 156.45C171.699 158.676 173.453 160.457 175.663 161.425L185.947 165.963C186.086 166.021 186.213 166.108 186.318 166.216C186.423 166.325 186.505 166.454 186.56 166.594C186.615 166.736 186.64 166.886 186.636 167.037C186.631 167.188 186.597 167.338 186.533 167.475C185.659 169.423 184.089 170.975 182.131 171.825C180.172 172.675 177.966 172.762 175.946 172.069L169.481 169.816Z" stroke="black" stroke-linecap="round" stroke-linejoin="round"/>
<path d="M160.671 158.114L169.896 154.408L166.947 147.451C166.863 147.259 166.708 147.107 166.514 147.027C166.32 146.945 166.104 146.942 165.908 147.017L158.194 150.101C158.096 150.142 158.006 150.202 157.932 150.276C157.856 150.352 157.796 150.441 157.756 150.54C157.716 150.638 157.696 150.744 157.696 150.85C157.697 150.957 157.718 151.061 157.759 151.16L160.671 158.114Z" stroke="black" stroke-linecap="round" stroke-linejoin="round"/>
<path d="M95.3164 77.9189C96.5538 79.3448 98.0935 80.4768 99.8235 81.2328C101.553 81.9887 103.431 82.3496 105.317 82.289" stroke="black" stroke-linecap="round" stroke-linejoin="round"/>
<path d="M85.8071 66.1224C87.5401 66.8426 89.4079 67.1808 91.2835 67.114C93.159 67.0473 94.998 66.577 96.6755 65.7354" stroke="black" stroke-linecap="round" stroke-linejoin="round"/>
<path d="M35.6899 128.887L120.97 170.326" stroke="black" stroke-linecap="round" stroke-linejoin="round"/>
<path d="M138.495 171.877C138.998 170.841 139.069 169.649 138.693 168.561C138.317 167.473 137.525 166.579 136.491 166.073L129.497 162.69C128.461 162.188 127.269 162.117 126.18 162.492C125.093 162.868 124.198 163.66 123.693 164.694L113.881 184.885C113.379 185.92 113.308 187.112 113.683 188.201C114.059 189.289 114.851 190.183 115.885 190.688L122.88 194.091C123.916 194.594 125.108 194.665 126.196 194.289C127.284 193.913 128.178 193.121 128.684 192.087L138.495 171.877Z" stroke="black" stroke-linecap="round" stroke-linejoin="round"/>
<path d="M32.9111 115.748L35.8036 109.812C37.2241 106.89 39.7462 104.652 42.8159 103.588C45.8856 102.525 49.2518 102.723 52.1753 104.14L130.215 142.05C133.136 143.471 135.375 145.992 136.439 149.063C137.502 152.132 137.304 155.498 135.887 158.422L132.994 164.377" stroke="black" stroke-linecap="round" stroke-linejoin="round"/>
<path d="M22.7969 145.467L115.904 190.688" stroke="black" stroke-linecap="round" stroke-linejoin="round"/>
<path d="M168.667 67.4834L170.18 77.1628" stroke="black" stroke-linecap="round" stroke-linejoin="round"/>
<path d="M174.263 71.5669L164.584 73.0793" stroke="black" stroke-linecap="round" stroke-linejoin="round"/>
<path d="M55.729 32.7931C55.7282 34.023 55.3628 35.2251 54.6789 36.2475C53.9949 37.2698 53.0233 38.0664 51.8867 38.5365C50.7501 39.0066 49.4997 39.1292 48.2934 38.8888C47.0871 38.6483 45.9793 38.0557 45.1099 37.1857C44.2405 36.3157 43.6484 35.2074 43.4087 34.001C43.1691 32.7947 43.2925 31.5442 43.7633 30.4079C44.2343 29.2717 45.0315 28.3005 46.0542 27.6173C47.0769 26.934 48.2793 26.5693 49.5093 26.5693C50.3267 26.5684 51.1362 26.7288 51.8915 27.0413C52.6468 27.3538 53.333 27.8123 53.9108 28.3904C54.4886 28.9686 54.9466 29.655 55.2586 30.4105C55.5706 31.166 55.7305 31.9757 55.729 32.7931Z" stroke="black" stroke-linecap="round" stroke-linejoin="round"/>
<path d="M48.3592 22.1683C49.1475 23.4984 49.5461 25.0233 49.5094 26.5692C48.0975 25.952 46.8862 24.9526 46.0119 23.6837C45.2219 22.3527 44.8222 20.8262 44.8587 19.2788C46.2722 19.8966 47.4847 20.8975 48.3592 22.1683Z" stroke="black" stroke-linecap="round" stroke-linejoin="round"/>
<path d="M90.6131 100.489L79.6064 98.0342" stroke="black" stroke-linecap="round" stroke-linejoin="round"/>
<path d="M90.7225 97.7881C84.0675 98.3827 77.3654 98.1796 70.7588 97.1831" stroke="black" stroke-linecap="round" stroke-linejoin="round"/>
<path d="M21.9082 87.8062L22.343 90.226" stroke="black" stroke-linecap="round" stroke-linejoin="round"/>
<path d="M20.4526 92.9106L18.0327 93.3455" stroke="black" stroke-linecap="round" stroke-linejoin="round"/>
<path d="M27.4472 91.7007L25.0273 92.1166" stroke="black" stroke-linecap="round" stroke-linejoin="round"/>
<path d="M23.5531 97.2211L23.1372 94.8013" stroke="black" stroke-linecap="round" stroke-linejoin="round"/>
<path d="M25.0277 92.1166C24.7271 92.1697 24.4189 92.1629 24.1209 92.0966C23.8229 92.0302 23.5411 91.9056 23.2914 91.7299C23.0417 91.5542 22.8292 91.3309 22.6662 91.0728C22.5031 90.8147 22.3926 90.527 22.3412 90.2261C22.3943 90.5267 22.3876 90.8348 22.3212 91.1328C22.2548 91.4308 22.1302 91.7127 21.9545 91.9624C21.7789 92.2121 21.5555 92.4245 21.2975 92.5876C21.0394 92.7507 20.7517 92.8611 20.4507 92.9126C20.7514 92.8594 21.0595 92.8662 21.3574 92.9326C21.6554 92.9989 21.9374 93.1235 22.1871 93.2992C22.4367 93.4749 22.6491 93.6982 22.8122 93.9563C22.9753 94.2144 23.0857 94.5022 23.1372 94.8031C23.0841 94.5025 23.0908 94.1943 23.1572 93.8963C23.2235 93.5983 23.3481 93.3164 23.5238 93.0667C23.6996 92.8171 23.9228 92.6046 24.1809 92.4415C24.439 92.2785 24.7268 92.168 25.0277 92.1166Z" stroke="black" stroke-linecap="round" stroke-linejoin="round"/>
<path d="M154.962 116.107C156.623 123.112 155.72 130.481 152.415 136.877C149.109 143.272 143.621 148.271 136.945 150.968" stroke="black" stroke-linecap="round" stroke-linejoin="round"/>
<path d="M98.2842 75.537C99.0215 74.1758 99.91 72.5689 99.91 72.5689C100.326 71.7182 100.226 64.9671 100.874 63.5144C101.043 63.1363 104.204 59.4349 105.695 57.6349C106.964 56.1056 108.134 55.9335 104.977 60.9811" stroke="black" stroke-linecap="round" stroke-linejoin="round"/>
<path d="M38.4093 123.253C38.9113 122.217 38.9824 121.025 38.6068 119.937C38.2312 118.849 37.4394 117.955 36.4053 117.449L29.4294 114.066C28.3937 113.564 27.2013 113.493 26.1134 113.868C25.0254 114.244 24.1307 115.036 23.6256 116.07L13.795 136.261C13.2929 137.296 13.2218 138.488 13.5975 139.577C13.9731 140.665 14.7648 141.559 15.7989 142.064L22.7937 145.467C23.8294 145.97 25.0218 146.041 26.1098 145.665C27.1977 145.289 28.0924 144.497 28.5976 143.463L38.4093 123.253Z" stroke="black" stroke-linecap="round" stroke-linejoin="round"/>
<path d="M120.687 5.4751L120.479 24.4557L132.389 45.1L132.597 26.1194L120.687 5.4751Z" stroke="black" stroke-linejoin="round"/>
<path d="M125.417 33.0879L119.178 39.2887L117.458 60.1409L132.412 45.1871L125.417 33.0879Z" stroke="black" stroke-linejoin="round"/>
</svg>
